<?xml version="1.0" encoding="UTF-8"?><svg id="uuid-9006d968-aa93-4150-b302-5407826b3c30" xmlns="http://www.w3.org/2000/svg" width="580" height="200" xmlns:xlink="http://www.w3.org/1999/xlink" viewBox="0 0 580 200"><defs><style>.uuid-b8a7fdc4-4c6d-4bcf-a7d4-370d9ece9b8c{fill:url(#uuid-cdcbf7c2-7035-426c-a2c7-49d1b184288a);}.uuid-48b087bc-98ec-4a1d-b818-c753d095d00e{fill:#fff;}.uuid-84c342f1-a888-4997-8b19-f3bbf2a8b681{fill:#e3a832;}.uuid-64014ee9-8a78-4d9c-a6b4-3bee17715e92{fill:#191919;}.uuid-c9a24bb6-ae98-4d10-b738-d4c7b17974bf{fill:url(#uuid-b5b30e3d-d93d-4f3e-a03b-e17f473f0042);}.uuid-c76a72dc-2d10-4e95-9ee3-ac10c5e5dabb{fill:url(#uuid-3945156e-4d58-410a-a07d-7cf061f72364);}</style><linearGradient id="uuid-3945156e-4d58-410a-a07d-7cf061f72364" x1="198.12" y1="51" x2="254.12" y2="51" gradientTransform="matrix(1, 0, 0, 1, 0, 0)" gradientUnits="userSpaceOnUse"><stop offset="0" stop-color="#221a8b"/><stop offset="1" stop-color="#0c2574"/></linearGradient><linearGradient id="uuid-cdcbf7c2-7035-426c-a2c7-49d1b184288a" x1="20.12" y1="97" x2="113.43" y2="97" xlink:href="#uuid-3945156e-4d58-410a-a07d-7cf061f72364"/><linearGradient id="uuid-b5b30e3d-d93d-4f3e-a03b-e17f473f0042" x1="103.85" y1="97" x2="196.12" y2="97" xlink:href="#uuid-3945156e-4d58-410a-a07d-7cf061f72364"/></defs><rect class="uuid-48b087bc-98ec-4a1d-b818-c753d095d00e" width="580" height="200" rx="4" ry="4"/><g><g><g><polygon class="uuid-c76a72dc-2d10-4e95-9ee3-ac10c5e5dabb" points="211.12 33 198.12 69 241.12 69 254.12 33 211.12 33"/><polygon class="uuid-b8a7fdc4-4c6d-4bcf-a7d4-370d9ece9b8c" points="100.12 33 68.12 33 20.12 161 52.12 161 100.12 161 113.43 125 65.62 125 100.12 33"/><polygon class="uuid-c9a24bb6-ae98-4d10-b738-d4c7b17974bf" points="117.1 33 103.85 69 150.62 69 116.12 161 148.12 161 196.12 33 164.12 33 117.1 33"/></g><path class="uuid-84c342f1-a888-4997-8b19-f3bbf2a8b681" d="M221.12,81c-22.09,0-40,17.91-40,40s17.91,40,40,40,40-17.91,40-40-17.91-40-40-40Zm0,56c-8.84,0-16-7.16-16-16s7.16-16,16-16,16,7.16,16,16-7.16,16-16,16Z"/></g><g><path class="uuid-64014ee9-8a78-4d9c-a6b4-3bee17715e92" d="M363.11,133.15c0,20.41-18.93,27.85-43.11,27.85h-51.7l25.55-95h42.75c21.22,0,29.43,7.94,29.69,22.04,.21,11.64-5.6,20.18-15.81,24.48,8.06,3.49,12.62,11.9,12.62,20.63Zm-24.59-2.26c0-5.61-4.54-7.88-10.96-7.88h-23.46l-5.69,18h23.06c9.22,0,17.05-2.63,17.05-10.12Zm-25.07-44.88l-5.55,18h17.06c9.33,0,16.35-3.73,16.35-10.67,0-5.07-4.13-7.33-11.07-7.33h-16.8Z"/><path class="uuid-64014ee9-8a78-4d9c-a6b4-3bee17715e92" d="M411.01,87l-5.1,16h44.75l-6.88,20h-40.92l-5.26,17h52.27l-7.4,21h-74.38l21.97-95h73.54l-7.26,21h-45.33Z"/><path class="uuid-64014ee9-8a78-4d9c-a6b4-3bee17715e92" d="M498.4,88h-31.63l7.21-22h84.85l-7.21,22h-27.6l-16.6,73h-26.62l17.6-73Z"/></g></g></svg>